<svg height="512" viewBox="0 0 512 512" width="512" xmlns="http://www.w3.org/2000/svg"><g id="flat"><path d="m152 488c-4.418 0-8 4.418-8 0v-32a8 8 0 0 1 16 0v32c0 4.418-3.582 0-8 0z" fill="#683b0d"/><path d="m104 488c-4.418 0-8 4.418-8 0v-32a8 8 0 0 1 16 0v32c0 4.418-3.582 0-8 0z" fill="#683b0d"/><circle cx="104" cy="424" fill="#027e2a" r="32"/><path d="m256 24a120 120 0 0 0 -120 120 161.311 161.311 0 0 0 34.7 99.953l85.3 108.047 85.3-108.047a161.311 161.311 0 0 0 34.7-99.953 120 120 0 0 0 -120-120z" fill="#0296e5"/><circle cx="256" cy="144" fill="#43dcfe" r="72"/><path d="m256 184a40 40 0 0 1 0-80 8 8 0 0 1 0 16 24 24 0 0 0 0 48 8 8 0 0 1 0 16z" fill="#0276b4"/><path d="m336 488h-128v-96l64-96 64 88z" fill="#eaeae8"/><path d="m336 384-64-88h120l64 88z" fill="#d32b39"/><path d="m432 352h-29.38l23.28 32h-19.79l-23.27-32h-20.22l23.27 32h-19.78l-23.27-32h-30.11l-11.64-16h30.11l-28.39-39.04a6.049 6.049 0 0 1 -.59-.96h19.67l29.09 40h20.22l-29.09-40h19.78l29.09 40h30.11l11.61 15.97c-.23.02-.46.03-.7.03z" fill="#961b20"/><path d="m336 384h120v104h-120z" fill="#cbcbcb"/><path d="m272 384a24 24 0 0 1 24 24v80a0 0 0 0 1 0 0h-48a0 0 0 0 1 0 0v-80a24 24 0 0 1 24-24z" fill="#0276b4"/><path d="m368 416h56v40h-56z" fill="#0292c9"/><path d="m368 416h48v32h-48z" fill="#43dcfe"/><path d="m432 352h-29.38l23.28 32h-19.79l-23.27-32h-20.22l23.27 32h-19.78l-23.27-32h-30.11l-11.64-16h30.11l-28.39-39.04a6.049 6.049 0 0 1 -.59-.96h19.67l29.09 40h20.22l-29.09-40h19.78l29.09 40h30.11l11.61 15.97c-.23.02-.46.03-.7.03z" fill="#961b20"/><rect fill="#02a437" height="96" rx="24" width="48" x="128" y="360"/><path d="m488 496h-408a8 8 0 0 1 0-16h408a8 8 0 0 1 0 16z" fill="#a8a8a8"/></g></svg>