<svg xmlns="http://www.w3.org/2000/svg" height="800" width="1200" viewBox="-59.389905 -20.979375 514.71251 125.87625"><path d="M227.274 51.518l23.5454-22.9305h-23.1899V17.7897h39.6644v10.975l-23.5485 22.8418h23.996v10.7979h-40.4582zM210.545 3.1156h12.2662V14.216H210.545zm-.1655 14.8085h12.2662v44.6147h-12.2662zM62.0206 40.097c.049-12.7521 10.4531-23.0547 23.249-23.0221 12.7957.0325 23.1469 10.3879 23.1306 23.14-.0163 12.7521-10.3939 23.0812-23.1897 23.0813-6.1686.009-12.0858-2.4351-16.4392-6.7904-4.3535-4.3552-6.7834-10.2615-6.7507-16.4089zm34.4692 0c0-6.3352-5.0144-11.6074-11.2793-11.6074-6.3568 0-11.1934 5.266-11.1934 11.6073s4.8366 11.6073 11.1934 11.6073c6.2649-.0092 11.2823-5.2722 11.2823-11.6073zm67.2648-22.3074h12.1804v4.9972c2.8627-3.6654 7.2487-5.8892 12.352-5.8892 10.5681 0 16.925 6.7811 16.925 18.2907v27.216h-12.447V36.795c0-5.9778-2.777-9.4691-8.2357-9.4691-4.6558 0-8.5055 3.2103-8.5055 10.6909v24.36h-12.26zM268.4402 40.097c0-15.795 11.647-23.2145 21.7616-23.2145 5.8235 0 10.3873 2.1382 13.339 5.266v-4.3588h12.26v44.6147h-12.26V57.407c-2.9517 3.4792-7.6994 5.8892-13.5168 5.8892-9.4923 0-21.5838-7.4836-21.5838-23.1993zm35.453-.0886c0-6.6039-4.8335-11.9585-11.46-11.9585-6.8044 0-11.9965 5.0858-11.9965 11.9585 0 6.8728 5.192 12.0441 11.9964 12.0441 6.6327 0 11.4662-5.4432 11.4662-12.044zM320.76 17.7897h12.1773v4.9972c2.8658-3.6654 7.2518-5.8892 12.355-5.8892 10.5652 0 16.922 6.7811 16.922 18.2907v27.216h-12.447V36.795c0-5.9778-2.7585-9.4691-8.2357-9.4691-4.6557 0-8.5054 3.2103-8.5054 10.6909v24.36h-12.26zm-93.486 44.6147V51.518l23.5454-22.9305h-23.1899V17.7897h39.6644v10.975l-23.5485 22.8418M48.936 39.7091l-.1685.3543c-3.3869 7.114-9.615 11.195-17.0875 11.195-10.8348 0-19.3096-8.5345-19.3096-19.427 0-11.1705 8.4165-19.5918 19.5793-19.5918 7.2335 0 12.729 3.3752 16.3366 10.0372l.193.3543L59.397 15.676l-.1839-.3054C53.5428 5.7456 43.3485 0 31.9497 0 13.7343 0 0 13.6874 0 31.8375 0 50.287 13.437 63.6781 31.9497 63.6781c11.9321 0 22.4727-6.6009 28.1982-17.6553l.1716-.333zm62.554.388c0-15.7951 11.647-23.2146 21.7615-23.2146 5.8236 0 10.3843 2.41 13.339 5.709v-4.8018h12.26v43.3745c0 12.5817-7.969 22.7533-23.101 22.7533-11.3712 0-19.6958-5.8922-23.294-12.8504l10.8347-6.0664c2.3264 4.6399 6.4366 7.5845 12.444 7.5845 6.6266 0 10.8318-5.1744 10.8318-10.975v-4.203c-2.9547 3.479-7.6993 5.889-13.5167 5.889-9.474 0-21.5594-7.4835-21.5594-23.1992zm35.453-.0887c0-6.6039-4.8336-11.9585-11.4601-11.9585-6.8044 0-11.9965 5.0858-11.9965 11.9585 0 6.8728 5.1921 12.0441 11.9965 12.0441 6.6265 0 11.46-5.4432 11.46-12.044zm245.48-11.2437v-10.975h-8.4165V3.0729h-12.26v14.7168H364.13v10.975h7.6012v14.2769c0 14.5457 4.6558 19.3628 18.8928 19.3628h1.79v-11.421c-7.5216 0-8.4166-1.0721-8.4166-8.0304V28.7647zm2.6022-20.3678a3.1287 3.1287 0 01-2.216.9192 3.1286 3.1286 0 01-2.216-.9192 3.028 3.028 0 01-.9195-2.2145c.003-1.4113.9564-2.6447 2.3249-3.0075s2.811.2355 3.517 1.4588c.7062 1.2233.5 2.7667-.5026 3.7632zm-4.1194-4.1083a2.5858 2.5858 0 00-.7846 1.9 2.6347 2.6347 0 00.7785 1.912 2.6896 2.6896 0 001.9065.7917c.716 0 1.4022-.285 1.9064-.7916a2.6162 2.6162 0 00.7846-1.9122c.009-1.0899-.6462-2.0763-1.6564-2.4937-1.0102-.4175-2.1736-.1826-2.941.5938zm1.839.174a2.629 2.629 0 01.938.1223.849.849 0 01.5333.8675.7536.7536 0 01-.3341.678 1.3119 1.3119 0 01-.4966.165.8312.8312 0 01.5885.336.9144.9144 0 01.187.5285v.507c.0007.06.01.1197.0276.1772l.0215.0427h-.567a.1885.1885 0 010-.0336v-.4184a.8417.8417 0 00-.325-.785 1.4665 1.4665 0 00-.6742-.11h-.4782v1.347h-.613V4.4627zm.6529.5377a1.5648 1.5648 0 00-.7325-.1252h-.518v1.2401h.5486a1.6327 1.6327 0 00.5762-.0764.6099.6099 0 00.1257-1.0385z" fill="#0033A1"/></svg>