<svg xmlns="http://www.w3.org/2000/svg" xmlns:xlink="http://www.w3.org/1999/xlink" viewBox="0 0 64.444 53.444" fill="#fff" fill-rule="evenodd" stroke="#000" stroke-linecap="round" stroke-linejoin="round"><use xlink:href="#A" x=".222" y=".222"/><symbol id="A" overflow="visible"><path d="M62.924 29.82c-.218-.178-.476-.3-.752-.354-1.624 1.62-3.607 3.325-5.367 4.47-.812.54-1.834.81-2.5.81-1.557 0-2.233-1.484-2.436-3.844-.267-3.17-.453-6.965-.453-12.832 0-6.018-1.366-10.108-5.004-10.43-.154-.013-.31-.023-.47-.023-2.233 0-3.316 1.147-4.738 4.046-1.218 2.495-3.113 6.136-6.63 13.014-3.045 5.935-6.43 11.196-9.34 14.837-.81 1.01-1.45 1.702-2.053 2.098-.402.265-.788.397-1.195.397-1.15 0-1.987-.97-2.267-3.227-.067-.536-.102-1.145-.102-1.83 0-4.653 1.76-12.205 4.8-23.332C26.64 5.53 25.69 0 20.82 0h-.055l-.003.001c-1.104.013-2.018.412-2.9 1.11-.868.683-1.736 2.16-2.547 4.143C14.406 7.484 8.844 18.63.006 24.37c-.104 2.183 1.132 4.364 3.636 4.6 2.28.216 3.898-.745 5.982-2.145l-.826 3.74-.3 1.327a37.24 37.24 0 0 0-.63 3.787c-1.247 11.146 3.918 16.646 9.968 16.646 1.01 0 2.013-.12 3.008-.373 6.666-1.69 13.084-9.336 20.678-26.933a48.86 48.86 0 0 0-.044 5.362c.5 10.087 4.5 13.114 10.128 13.114 4.264 0 8.256-2.225 10.286-5 1.49-1.956 2.098-4.114 2.098-5.8 0-1.308-.415-2.353-1.076-2.884" stroke="none" fill="#ea5252"/></symbol></svg>